<?xml version="1.0" encoding="iso-8859-1"?>
<!-- Generator: Adobe Illustrator 19.0.0, SVG Export Plug-In . SVG Version: 6.00 Build 0)  -->
<svg version="1.1" id="Layer_1" xmlns="http://www.w3.org/2000/svg" xmlns:xlink="http://www.w3.org/1999/xlink" x="0px" y="0px"
	 viewBox="0 0 511.999 511.999" style="enable-background:new 0 0 511.999 511.999;" xml:space="preserve">
<g>
	<path style="fill:#898890;" d="M438.65,166.102c-9.292,0-16.824-7.533-16.824-16.824V90.173h-59.104
		c-9.292,0-16.824-7.533-16.824-16.824s7.533-16.824,16.824-16.824h75.928c9.292,0,16.824,7.533,16.824,16.824v75.928
		C455.475,158.57,447.942,166.102,438.65,166.102z"/>
	<path style="fill:#898890;" d="M438.65,455.475h-75.928c-9.292,0-16.824-7.533-16.824-16.824c0-9.292,7.533-16.824,16.824-16.824
		h59.104v-59.104c0-9.292,7.533-16.824,16.824-16.824c9.292,0,16.824,7.533,16.824,16.824v75.929
		C455.475,447.942,447.942,455.475,438.65,455.475z"/>
</g>
<g>
	<path style="fill:#C6C5CA;" d="M73.348,166.102c-9.292,0-16.824-7.533-16.824-16.824v-75.93c0-9.292,7.533-16.824,16.824-16.824
		h75.928c9.292,0,16.824,7.533,16.824,16.824s-7.533,16.824-16.824,16.824H90.172v59.104
		C90.172,158.57,82.64,166.102,73.348,166.102z"/>
	<path style="fill:#C6C5CA;" d="M149.278,455.475h-75.93c-9.292,0-16.824-7.533-16.824-16.824v-75.929
		c0-9.292,7.533-16.824,16.824-16.824s16.824,7.533,16.824,16.824v59.104h59.104c9.292,0,16.824,7.533,16.824,16.824
		C166.101,447.942,158.569,455.475,149.278,455.475z"/>
</g>
<path style="fill:#96C8EF;" d="M507.877,244.968c-1.238-1.426-30.847-35.314-76.215-69.572
	c-62.018-46.83-121.12-70.575-175.664-70.575s-113.645,23.745-175.664,70.575c-45.368,34.258-74.977,68.147-76.215,69.572
	c-5.495,6.328-5.495,15.735,0,22.064c1.238,1.426,30.847,35.314,76.215,69.572c62.018,46.83,121.12,70.575,175.664,70.575
	s113.645-23.745,175.664-70.575c45.368-34.258,74.977-68.147,76.215-69.572C513.373,260.704,513.373,251.296,507.877,244.968z"/>
<circle style="fill:#3D9AE2;" cx="252.803" cy="256" r="132.408"/>
<circle style="fill:#1A6FB0;" cx="252.803" cy="256" r="89.898"/>
<g>
	<path style="fill:#C2DFF6;" d="M255.999,433.771c-9.292,0-16.824-7.533-16.824-16.824V95.053c0-9.292,7.533-16.824,16.824-16.824
		c9.292,0,16.824,7.533,16.824,16.824v321.892C272.824,426.238,265.291,433.771,255.999,433.771z"/>
	<path style="fill:#C2DFF6;" d="M416.945,272.824H95.054c-9.292,0-16.824-7.533-16.824-16.824c0-9.292,7.533-16.824,16.824-16.824
		h321.891c9.292,0,16.824,7.533,16.824,16.824C433.769,265.291,426.236,272.824,416.945,272.824z"/>
</g>
<g>
</g>
<g>
</g>
<g>
</g>
<g>
</g>
<g>
</g>
<g>
</g>
<g>
</g>
<g>
</g>
<g>
</g>
<g>
</g>
<g>
</g>
<g>
</g>
<g>
</g>
<g>
</g>
<g>
</g>
</svg>
