<?xml version="1.0" encoding="iso-8859-1"?>
<!-- Generator: Adobe Illustrator 19.0.0, SVG Export Plug-In . SVG Version: 6.00 Build 0)  -->
<svg version="1.1" id="Capa_1" xmlns="http://www.w3.org/2000/svg" xmlns:xlink="http://www.w3.org/1999/xlink" x="0px" y="0px"
	 viewBox="0 0 512 512" style="enable-background:new 0 0 512 512;" xml:space="preserve">
<path style="fill:#002C3C;" d="M165,376h-30v-30h30c24.814,0,45-20.186,45-45h30C240,342.353,206.353,376,165,376z"/>
<polygon style="fill:#00465F;" points="150,466 60,466 60,316 105,286 150,316 "/>
<path style="fill:#00607F;" d="M75,166v120H60c-32.999,0-60-27.001-60-60c0-33.001,27.001-60,60-60H75z"/>
<path style="fill:#00465F;" d="M0,226h75v60H60C27.001,286,0,258.999,0,226z"/>
<polygon style="fill:#00ABE9;" points="270,226 240,316 60,316 60,136 240,136 "/>
<polygon style="fill:#136EF1;" points="60,226 270,226 240,316 60,316 "/>
<path style="fill:#00607F;" d="M512,226c0,32.999-27.001,60-60,60c-6.899,0-13.5-1.201-20.099-3.3V169.3
	c6.599-2.1,13.2-3.3,20.099-3.3C484.999,166,512,192.999,512,226z"/>
<path style="fill:#00465F;" d="M512,226c0,32.999-27.001,60-60,60c-6.899,0-13.5-1.201-20.099-3.3V226H512z"/>
<polygon style="fill:#DEECF1;" points="422,61 422,391 240,316 240,136 "/>
<polygon style="fill:#A8D3D8;" points="240,226 422,226 422,391 240,316 "/>
<rect x="392" y="46" style="fill:#00ABE9;" width="60" height="360"/>
<rect x="392" y="226" style="fill:#136EF1;" width="60" height="180"/>
<g>
</g>
<g>
</g>
<g>
</g>
<g>
</g>
<g>
</g>
<g>
</g>
<g>
</g>
<g>
</g>
<g>
</g>
<g>
</g>
<g>
</g>
<g>
</g>
<g>
</g>
<g>
</g>
<g>
</g>
</svg>
