<svg xmlns="http://www.w3.org/2000/svg" xmlns:xlink="http://www.w3.org/1999/xlink" viewBox="-2325 4409 334.551 667">
  <defs>
    <style>
      .cls-1 {
        fill: #7dc4f6;
        stroke: rgba(149,152,154,0.3);
      }

      .cls-2, .cls-32, .cls-35, .cls-6, .cls-8 {
        fill: none;
      }

      .cls-3 {
        fill: #818284;
      }

      .cls-10, .cls-14, .cls-17, .cls-19, .cls-22, .cls-23, .cls-24, .cls-25, .cls-28, .cls-34, .cls-36, .cls-37, .cls-39, .cls-4, .cls-9 {
        fill: #fff;
      }

      .cls-4, .cls-6 {
        stroke: #000;
        stroke-miterlimit: 10;
      }

      .cls-5 {
        fill: #535353;
      }

      .cls-6 {
        stroke-linecap: round;
        stroke-linejoin: round;
        stroke-width: 0.75px;
      }

      .cls-7 {
        fill: #f5fdff;
        opacity: 0.1;
      }

      .cls-12, .cls-8, .cls-9 {
        fill-rule: evenodd;
      }

      .cls-10 {
        font-size: 15px;
      }

      .cls-10, .cls-14, .cls-22, .cls-24, .cls-25, .cls-36, .cls-37 {
        font-family: SegoeUI, Segoe UI;
      }

      .cls-11 {
        clip-path: url(#clip-path);
      }

      .cls-12, .cls-29, .cls-30, .cls-31 {
        fill: #008ced;
      }

      .cls-13 {
        fill: #2f3e9e;
      }

      .cls-14 {
        font-size: 9px;
      }

      .cls-15 {
        fill: rgba(255,255,255,0.9);
      }

      .cls-16 {
        fill: rgba(255,255,255,0.3);
      }

      .cls-17 {
        opacity: 0.9;
      }

      .cls-18 {
        fill: #00679e;
      }

      .cls-20 {
        fill: url(#linear-gradient);
      }

      .cls-21 {
        fill: #27b4f5;
        stroke: #27b4f5;
        stroke-width: 2px;
      }

      .cls-22 {
        font-size: 7px;
      }

      .cls-23 {
        font-size: 17px;
      }

      .cls-23, .cls-29, .cls-30, .cls-39 {
        font-family: SegoeUI-Bold, Segoe UI;
        font-weight: 700;
      }

      .cls-24 {
        font-size: 8px;
      }

      .cls-25, .cls-31 {
        font-size: 11px;
      }

      .cls-26 {
        fill: rgba(255,255,255,0.89);
      }

      .cls-27 {
        clip-path: url(#clip-path-2);
      }

      .cls-28, .cls-32 {
        stroke: #008ced;
      }

      .cls-28 {
        stroke-width: 4px;
      }

      .cls-29 {
        font-size: 18px;
      }

      .cls-30 {
        font-size: 16px;
      }

      .cls-31 {
        font-family: SegoeUI-Italic, Segoe UI;
        font-style: italic;
      }

      .cls-33 {
        fill: #19a6f2;
      }

      .cls-34 {
        font-size: 23px;
        font-family: SegoeUI-Semibold, Segoe UI;
        font-weight: 600;
      }

      .cls-35 {
        stroke: #fff;
      }

      .cls-36 {
        font-size: 13px;
      }

      .cls-37, .cls-39 {
        font-size: 12px;
      }

      .cls-38 {
        fill: #75c9f7;
      }

      .cls-40 {
        stroke: none;
      }

      .cls-41 {
        filter: url(#Rectangle_246-5);
      }

      .cls-42 {
        filter: url(#Rectangle_246-4);
      }

      .cls-43 {
        filter: url(#Rectangle_246-3);
      }

      .cls-44 {
        filter: url(#Rectangle_246-2);
      }

      .cls-45 {
        filter: url(#Rectangle_246);
      }

      .cls-46 {
        filter: url(#Rectangle_245);
      }

      .cls-47 {
        filter: url(#path);
      }
    </style>
    <clipPath id="clip-path">
      <rect id="Rectangle_147" data-name="Rectangle 147" class="cls-1" width="311.75" height="72.564"/>
    </clipPath>
    <filter id="path" x="-2316.75" y="4461" width="317.75" height="71.967" filterUnits="userSpaceOnUse">
      <feOffset dy="1" input="SourceAlpha"/>
      <feGaussianBlur stdDeviation="1" result="blur"/>
      <feFlood flood-opacity="0.302"/>
      <feComposite operator="in" in2="blur"/>
      <feComposite in="SourceGraphic"/>
    </filter>
    <linearGradient id="linear-gradient" x1="0.5" x2="0.5" y2="1" gradientUnits="objectBoundingBox">
      <stop offset="0" stop-color="#008ced"/>
      <stop offset="1" stop-color="#4bd9fe"/>
    </linearGradient>
    <filter id="Rectangle_245" x="-2303.63" y="4645.831" width="293.172" height="379.169" filterUnits="userSpaceOnUse">
      <feOffset dy="3" input="SourceAlpha"/>
      <feGaussianBlur stdDeviation="3" result="blur-2"/>
      <feFlood flood-opacity="0.161"/>
      <feComposite operator="in" in2="blur-2"/>
      <feComposite in="SourceGraphic"/>
    </filter>
    <clipPath id="clip-path-2">
      <rect class="cls-2" width="245.244" height="330.803"/>
    </clipPath>
    <filter id="Rectangle_246" x="-2288.666" y="4664.796" width="260.954" height="88.004" filterUnits="userSpaceOnUse">
      <feOffset dy="3" input="SourceAlpha"/>
      <feGaussianBlur stdDeviation="3" result="blur-3"/>
      <feFlood flood-opacity="0.161"/>
      <feComposite operator="in" in2="blur-3"/>
      <feComposite in="SourceGraphic"/>
    </filter>
    <filter id="Rectangle_246-2" x="-2288.666" y="4746.796" width="260.954" height="88.004" filterUnits="userSpaceOnUse">
      <feOffset dy="3" input="SourceAlpha"/>
      <feGaussianBlur stdDeviation="3" result="blur-4"/>
      <feFlood flood-opacity="0.161"/>
      <feComposite operator="in" in2="blur-4"/>
      <feComposite in="SourceGraphic"/>
    </filter>
    <filter id="Rectangle_246-3" x="-2288.666" y="4828.796" width="260.954" height="88.004" filterUnits="userSpaceOnUse">
      <feOffset dy="3" input="SourceAlpha"/>
      <feGaussianBlur stdDeviation="3" result="blur-5"/>
      <feFlood flood-opacity="0.161"/>
      <feComposite operator="in" in2="blur-5"/>
      <feComposite in="SourceGraphic"/>
    </filter>
    <filter id="Rectangle_246-4" x="-2288.666" y="4910.796" width="260.954" height="88.004" filterUnits="userSpaceOnUse">
      <feOffset dy="3" input="SourceAlpha"/>
      <feGaussianBlur stdDeviation="3" result="blur-6"/>
      <feFlood flood-opacity="0.161"/>
      <feComposite operator="in" in2="blur-6"/>
      <feComposite in="SourceGraphic"/>
    </filter>
    <filter id="Rectangle_246-5" x="-2288.666" y="4992.796" width="260.954" height="88.004" filterUnits="userSpaceOnUse">
      <feOffset dy="3" input="SourceAlpha"/>
      <feGaussianBlur stdDeviation="3" result="blur-7"/>
      <feFlood flood-opacity="0.161"/>
      <feComposite operator="in" in2="blur-7"/>
      <feComposite in="SourceGraphic"/>
    </filter>
  </defs>
  <g id="nav_drawer" data-name="nav drawer" transform="translate(-2347 4409)">
    <g id="Group_440" data-name="Group 440" transform="translate(22)">
      <g id="Group_428" data-name="Group 428">
        <path id="Path_654" data-name="Path 654" class="cls-3" d="M285.157,667H49.394A49.337,49.337,0,0,1,0,617.606V49.394A49.337,49.337,0,0,1,49.394,0H285.157a49.337,49.337,0,0,1,49.394,49.394V617.781A49.526,49.526,0,0,1,285.157,667Z"/>
        <path id="Path_655" data-name="Path 655" class="cls-4" d="M282.178,660.342H50.794A49.337,49.337,0,0,1,1.4,610.948V51.494A49.337,49.337,0,0,1,50.794,2.1H282.178a49.337,49.337,0,0,1,49.394,49.394V611.123A49.3,49.3,0,0,1,282.178,660.342Z" transform="translate(1.052 1.578)"/>
        <rect id="Rectangle_303" data-name="Rectangle 303" class="cls-4" width="311.956" height="553.323" transform="translate(11.911 55.175)"/>
        <path id="Path_656" data-name="Path 656" class="cls-5" d="M142.936,22.254H77.077A2.319,2.319,0,0,1,74.8,19.977h0A2.319,2.319,0,0,1,77.077,17.7h65.859a2.319,2.319,0,0,1,2.277,2.277h0A2.319,2.319,0,0,1,142.936,22.254Z" transform="translate(56.218 13.303)"/>
      </g>
      <rect id="Rectangle_304" data-name="Rectangle 304" width="12.436" height="1.752" transform="translate(62.006 627.414)"/>
      <rect id="Rectangle_305" data-name="Rectangle 305" class="cls-6" width="9.809" height="9.634" transform="translate(163.422 628.465)"/>
      <path id="Path_657" data-name="Path 657" class="cls-6" d="M151.08,358.4l-4.554,4.554a1.693,1.693,0,0,0,0,2.452l4.554,4.554" transform="translate(109.73 269.365)"/>
      <path id="Path_658" data-name="Path 658" class="cls-7" d="M200.5,1.289,5.2,613.815,1,48.756A46.239,46.239,0,0,1,46.541,2.165C105.57,1.289,200.68.238,200.5,1.289Z" transform="translate(0.751 0.638)"/>
    </g>
    <g id="Group_441" data-name="Group 441" transform="translate(33.25 54)">
      <g id="app_bar" data-name="app bar">
        <g id="app_bar-2" data-name="app bar">
          <g id="app_bar-3" data-name="app bar">
            <g id="app_bar-4" data-name="app bar">
              <g id="ic_more_vert_white" transform="translate(287.503 32.984)">
                <path id="path-2" data-name="path" class="cls-8" d="M10.392-4.21H0V-24H10.392Z" transform="translate(0 24)"/>
                <path id="ic_more_vert_white-2" data-name="ic_more_vert_white" class="cls-9" d="M5.732-16.7a1.7,1.7,0,0,0,1.732-1.649A1.7,1.7,0,0,0,5.732-20,1.7,1.7,0,0,0,4-18.351,1.7,1.7,0,0,0,5.732-16.7Zm0,1.649A1.7,1.7,0,0,0,4-13.4a1.7,1.7,0,0,0,1.732,1.649A1.7,1.7,0,0,0,7.464-13.4a1.7,1.7,0,0,0-1.732-1.649Zm0,4.948A1.7,1.7,0,0,0,4-8.456,1.7,1.7,0,0,0,5.732-6.807,1.7,1.7,0,0,0,7.464-8.456,1.7,1.7,0,0,0,5.732-10.1Z" transform="translate(-0.536 23.298)"/>
              </g>
              <g id="ic_search_white" transform="translate(245.936 32.984)">
                <path id="path-3" data-name="path" class="cls-8" d="M20.783-4.21H0V-24H20.783Z" transform="translate(0 24)"/>
                <path id="ic_search_white-2" data-name="ic_search_white" class="cls-9" d="M13.833-11.416h-.688l-.239-.226a5.19,5.19,0,0,0,1.359-3.487,5.5,5.5,0,0,0-5.632-5.363A5.5,5.5,0,0,0,3-15.128,5.5,5.5,0,0,0,8.632-9.766a5.774,5.774,0,0,0,3.661-1.292l.239.226v.653l4.331,4.118,1.292-1.23-4.322-4.125Zm-5.2,0a3.808,3.808,0,0,1-3.9-3.713,3.809,3.809,0,0,1,3.9-3.713,3.81,3.81,0,0,1,3.9,3.713,3.809,3.809,0,0,1-3.9,3.713Z" transform="translate(-0.402 22.965)"/>
              </g>
              <g id="app_bar_more" transform="translate(83.999 32.984)">
                <path id="app_bar_more-2" data-name="app_bar_more" class="cls-9" d="M7,10l4.33,4.123L15.66,10Z" transform="translate(-0.938 -1.754)"/>
                <rect id="rectangle" class="cls-2" width="20.783" height="19.79"/>
              </g>
              <text id="All" class="cls-10" transform="translate(62.35 46.51)"><tspan x="0" y="0">All</tspan></text>
              <g id="ic_menu_white" transform="translate(13.856 32.984)">
                <rect id="rectangle-2" data-name="rectangle" class="cls-2" width="20.783" height="19.79"/>
                <path id="ic_menu_white-2" data-name="ic_menu_white" class="cls-9" d="M3,15.9H18.588V14.246H3V15.9Zm0-4.123H18.588V10.123H3v1.649ZM3,6V7.649H18.588V6Z" transform="translate(-0.402 -1.052)"/>
              </g>
              <g id="Mask_Group_1" data-name="Mask Group 1" class="cls-11">
                <g class="cls-47" transform="matrix(1, 0, 0, 1, 2313.75, -4463)">
                  <path id="path-4" data-name="path" class="cls-12" d="M311.75,0H0V65.967H311.75Z" transform="translate(-2313.75 4463)"/>
                </g>
              </g>
            </g>
            <g id="status_bar" data-name="status bar">
              <rect id="rectangle-3" data-name="rectangle" class="cls-13" width="311.75" height="19.79"/>
              <rect id="status_bar-2" data-name="status bar" class="cls-2" width="102.185" height="19.79" transform="translate(209.566)"/>
              <text id="time" class="cls-14" transform="translate(276.245 12.474)"><tspan x="0" y="0">12:30</tspan></text>
              <g id="battery" transform="translate(261.524 4.948)">
                <rect id="battery_level_1" data-name="battery level 1" class="cls-15" width="6.928" height="2.474" transform="translate(0 8.246)"/>
                <rect id="battery_level_2_" data-name="battery level 2 " class="cls-15" width="6.928" height="2.474" transform="translate(0 5.772)"/>
                <rect id="battery_level_3" data-name="battery level 3" class="cls-16" width="6.928" height="2.474" transform="translate(0 3.298)"/>
                <rect id="battery_level_4" data-name="battery level 4" class="cls-16" width="6.928" height="2.474" transform="translate(0 0.825)"/>
                <rect id="battery_full" data-name="battery full" class="cls-16" width="3.464" height="0.825" transform="translate(1.732)"/>
              </g>
              <path id="network_connection" data-name="network connection" class="cls-17" d="M19.8,11.544H31.924V0Z" transform="translate(222.153 4.123)"/>
              <path id="wifi" class="cls-17" d="M7.621,11.544l7.621-8.988A12.416,12.416,0,0,0,7.621,0,12.416,12.416,0,0,0,0,2.556l7.621,8.988Z" transform="translate(224.807 4.123)"/>
            </g>
          </g>
          <g id="ic_more_vert_white-3" data-name="ic_more_vert_white" transform="translate(287.503 32.984)">
            <path id="path-5" data-name="path" class="cls-8" d="M10.392-4.21H0V-24H10.392Z" transform="translate(0 24)"/>
            <path id="ic_more_vert_white-4" data-name="ic_more_vert_white" class="cls-9" d="M5.732-16.7a1.7,1.7,0,0,0,1.732-1.649A1.7,1.7,0,0,0,5.732-20,1.7,1.7,0,0,0,4-18.351,1.7,1.7,0,0,0,5.732-16.7Zm0,1.649A1.7,1.7,0,0,0,4-13.4a1.7,1.7,0,0,0,1.732,1.649A1.7,1.7,0,0,0,7.464-13.4a1.7,1.7,0,0,0-1.732-1.649Zm0,4.948A1.7,1.7,0,0,0,4-8.456,1.7,1.7,0,0,0,5.732-6.807,1.7,1.7,0,0,0,7.464-8.456,1.7,1.7,0,0,0,5.732-10.1Z" transform="translate(-0.536 23.298)"/>
          </g>
          <text id="All-2" data-name="All" class="cls-10" transform="translate(51.543 46.51)"><tspan x="0" y="0">HOME</tspan></text>
          <g id="ic_menu_white-3" data-name="ic_menu_white" transform="translate(13.856 32.984)">
            <rect id="rectangle-4" data-name="rectangle" class="cls-2" width="20.783" height="19.79"/>
            <path id="ic_menu_white-4" data-name="ic_menu_white" class="cls-9" d="M3,15.9H18.588V14.246H3V15.9Zm0-4.123H18.588V10.123H3v1.649ZM3,6V7.649H18.588V6Z" transform="translate(-0.402 -1.052)"/>
          </g>
        </g>
        <g id="status_bar-3" data-name="status bar">
          <path id="rectangle-5" data-name="rectangle" class="cls-18" d="M0,0H311.75V19.79H0Z"/>
          <rect id="status_bar-4" data-name="status bar" class="cls-2" width="102.185" height="19.79" transform="translate(209.566)"/>
          <text id="time-2" data-name="time" class="cls-14" transform="translate(276.245 12.474)"><tspan x="0" y="0">12:30</tspan></text>
          <g id="battery-2" data-name="battery" transform="translate(261.524 4.948)">
            <rect id="battery_level_1-2" data-name="battery level 1" class="cls-15" width="6.928" height="2.474" transform="translate(0 8.246)"/>
            <rect id="battery_level_2_2" data-name="battery level 2 " class="cls-15" width="6.928" height="2.474" transform="translate(0 5.772)"/>
            <rect id="battery_level_3-2" data-name="battery level 3" class="cls-16" width="6.928" height="2.474" transform="translate(0 3.298)"/>
            <rect id="battery_level_4-2" data-name="battery level 4" class="cls-16" width="6.928" height="2.474" transform="translate(0 0.825)"/>
            <rect id="battery_full-2" data-name="battery full" class="cls-16" width="3.464" height="0.825" transform="translate(1.732)"/>
          </g>
          <path id="network_connection-2" data-name="network connection" class="cls-17" d="M19.8,11.544H31.924V0Z" transform="translate(222.153 4.123)"/>
          <path id="wifi-2" data-name="wifi" class="cls-17" d="M7.621,11.544l7.621-8.988A12.416,12.416,0,0,0,7.621,0,12.416,12.416,0,0,0,0,2.556l7.621,8.988Z" transform="translate(224.807 4.123)"/>
        </g>
      </g>
      <g id="add" transform="translate(246.075 86.994)">
        <g id="Group_14" data-name="Group 14" transform="translate(0 0)">
          <path id="Path_16" data-name="Path 16" class="cls-19" d="M22.171,10.416H13.357v-9.1A1.6,1.6,0,0,0,11.722,0a1.6,1.6,0,0,0-1.636,1.314v9.1H1.272A1.618,1.618,0,0,0,0,12.105a1.618,1.618,0,0,0,1.272,1.689h8.814v9.1a1.6,1.6,0,0,0,1.636,1.314A1.6,1.6,0,0,0,13.357,22.9v-9.1h8.814a1.618,1.618,0,0,0,1.272-1.689A1.618,1.618,0,0,0,22.171,10.416Z" transform="translate(0 -0.001)"/>
        </g>
      </g>
      <rect id="Rectangle_243" data-name="Rectangle 243" class="cls-20" width="311.75" height="151.724" transform="translate(0 65.967)"/>
      <g id="Group_384" data-name="Group 384" transform="translate(193.701 76.687)">
        <g id="Group_385" data-name="Group 385" transform="translate(0)">
          <g id="Group_381" data-name="Group 381">
            <path id="Subtraction_1" data-name="Subtraction 1" class="cls-19" d="M47.28,93.794C21.21,93.794,0,72.756,0,46.9S21.21,0,47.28,0,94.561,21.038,94.561,46.9,73.351,93.794,47.28,93.794Zm0-83.3a36.4,36.4,0,1,0,36.7,36.4A36.594,36.594,0,0,0,47.28,10.494Z"/>
            <g id="Group_380" data-name="Group 380" transform="translate(24.94 71.739)">
              <g id="Rectangle_244" data-name="Rectangle 244" class="cls-21" transform="translate(0 0)">
                <rect class="cls-40" width="44.305" height="22.161" rx="11"/>
                <rect class="cls-2" x="1" y="1" width="42.305" height="20.161" rx="10"/>
              </g>
              <text id="REWARDS" class="cls-22" transform="translate(4.325 13.772)"><tspan x="0" y="0">REWARDS</tspan></text>
            </g>
          </g>
          <text id="_20_" data-name="20%" class="cls-23" transform="translate(29.097 52.633)"><tspan x="0" y="0">20%</tspan></text>
        </g>
      </g>
      <text id="Sparsh_Wadhwa" data-name="Sparsh Wadhwa" class="cls-10" transform="translate(19.121 103.406)"><tspan x="0" y="0">Sparsh Wadhwa</tspan></text>
      <text id="Admn_No_:_23504" data-name="Admn No : 23504" class="cls-24" transform="translate(19.121 122.793)"><tspan x="0" y="0">Admn No : 23504</tspan></text>
      <g id="Group_383" data-name="Group 383" transform="translate(18.744 134.158)">
        <g id="Group_382" data-name="Group 382" transform="translate(19.497 2.723)">
          <text id="SPS" class="cls-25" transform="translate(0 12)"><tspan x="0" y="0">SPS</tspan></text>
          <text id="_12th_A" data-name="12th A" class="cls-25" transform="translate(44.892 12)"><tspan x="0" y="0">12th A</tspan></text>
        </g>
        <g id="facebook-placeholder-for-locate-places-on-maps" transform="translate(0 0)">
          <path id="Facebook_Places" class="cls-19" d="M79.935,4.782a5.959,5.959,0,0,0-.313-.769A6.649,6.649,0,0,0,66.905,5.961v.82c0,.034.012.342.029.5.241,1.913,1.763,3.946,2.9,5.858,1.223,2.049,2.491,4.065,3.748,6.08.775-1.315,1.547-2.647,2.3-3.928.206-.376.446-.752.653-1.11.138-.239.4-.478.521-.7,1.223-2.22,3.191-4.458,3.191-6.661V5.91A6.776,6.776,0,0,0,79.935,4.782ZM73.541,8.9a2.368,2.368,0,0,1-2.267-1.606,2.21,2.21,0,0,1-.064-.6V6.166A2.236,2.236,0,0,1,73.615,3.98a2.429,2.429,0,0,1,2.443,2.46A2.492,2.492,0,0,1,73.541,8.9Z" transform="translate(-66.905)"/>
        </g>
      </g>
      <g class="cls-46" transform="matrix(1, 0, 0, 1, 2313.75, -4463)">
        <path id="Rectangle_245-2" data-name="Rectangle 245" class="cls-26" d="M21,0H254.172a21,21,0,0,1,21,21V361.169a0,0,0,0,1,0,0H0a0,0,0,0,1,0,0V21A21,21,0,0,1,21,0Z" transform="translate(-2294.63 4651.83)"/>
      </g>
      <g id="Repeat_Grid_12" data-name="Repeat Grid 12" class="cls-27" transform="translate(34.085 207.796)">
        <g id="Group_388" data-name="Group 388" transform="translate(-41 -252)">
          <g class="cls-45" transform="matrix(1, 0, 0, 1, 2320.67, -4418.8)">
            <rect id="Rectangle_246-6" data-name="Rectangle 246" class="cls-19" width="242.954" height="70.004" rx="13" transform="translate(-2279.67 4670.8)"/>
          </g>
          <g id="Group_386" data-name="Group 386" transform="translate(59.942 261.059)">
            <g id="Ellipse_62" data-name="Ellipse 62" class="cls-28" transform="translate(0 0)">
              <ellipse class="cls-40" cx="25.943" cy="25.943" rx="25.943" ry="25.943"/>
              <ellipse class="cls-2" cx="25.943" cy="25.943" rx="23.943" ry="23.943"/>
            </g>
            <text id="_6" data-name="6" class="cls-29" transform="translate(18.942 31.354)"><tspan x="0" y="0">6</tspan></text>
          </g>
          <g id="Group_387" data-name="Group 387" transform="translate(127.475 267.648)">
            <text id="Assignments" class="cls-30" transform="translate(0 17)"><tspan x="0" y="0">Assignments</tspan></text>
            <text id="Check_your_knowledge" data-name="Check your knowledge" class="cls-31" transform="translate(0 34.236)"><tspan x="0" y="0">Check your knowledge</tspan></text>
          </g>
          <path id="Path_642" data-name="Path 642" class="cls-32" d="M2279.1,2008.2l6.6,6.3-7.3,5" transform="translate(-1963 -1718)"/>
        </g>
        <g id="Group_388-2" data-name="Group 388" transform="translate(-41 -170)">
          <g class="cls-44" transform="matrix(1, 0, 0, 1, 2320.67, -4500.8)">
            <rect id="Rectangle_246-7" data-name="Rectangle 246" class="cls-19" width="242.954" height="70.004" rx="13" transform="translate(-2279.67 4752.8)"/>
          </g>
          <g id="Group_386-2" data-name="Group 386" transform="translate(59.942 261.059)">
            <g id="Ellipse_62-2" data-name="Ellipse 62" class="cls-28" transform="translate(0 0)">
              <ellipse class="cls-40" cx="25.943" cy="25.943" rx="25.943" ry="25.943"/>
              <ellipse class="cls-2" cx="25.943" cy="25.943" rx="23.943" ry="23.943"/>
            </g>
            <text id="_6-2" data-name="6" class="cls-29" transform="translate(18.942 31.354)"><tspan x="0" y="0">6</tspan></text>
          </g>
          <g id="Group_387-2" data-name="Group 387" transform="translate(127.475 267.648)">
            <text id="Homework" class="cls-30" transform="translate(0 17)"><tspan x="0" y="0">Homework</tspan></text>
            <text id="Its_practice_time" data-name="Its practice time" class="cls-31" transform="translate(0 34.236)"><tspan x="0" y="0">Its practice time</tspan></text>
          </g>
          <path id="Path_642-2" data-name="Path 642" class="cls-32" d="M2279.1,2008.2l6.6,6.3-7.3,5" transform="translate(-1963 -1718)"/>
        </g>
        <g id="Group_388-3" data-name="Group 388" transform="translate(-41 -88)">
          <g class="cls-43" transform="matrix(1, 0, 0, 1, 2320.67, -4582.8)">
            <rect id="Rectangle_246-8" data-name="Rectangle 246" class="cls-19" width="242.954" height="70.004" rx="13" transform="translate(-2279.67 4834.8)"/>
          </g>
          <g id="Group_386-3" data-name="Group 386" transform="translate(59.942 261.059)">
            <g id="Ellipse_62-3" data-name="Ellipse 62" class="cls-28" transform="translate(0 0)">
              <ellipse class="cls-40" cx="25.943" cy="25.943" rx="25.943" ry="25.943"/>
              <ellipse class="cls-2" cx="25.943" cy="25.943" rx="23.943" ry="23.943"/>
            </g>
            <text id="_6-3" data-name="6" class="cls-29" transform="translate(18.942 31.354)"><tspan x="0" y="0">6</tspan></text>
          </g>
          <g id="Group_387-3" data-name="Group 387" transform="translate(127.475 267.648)">
            <text id="Announcements" class="cls-30" transform="translate(0 17)"><tspan x="0" y="0">Announcements</tspan></text>
            <text id="Class_Updates" data-name="Class Updates" class="cls-31" transform="translate(0 34.236)"><tspan x="0" y="0">Class Updates</tspan></text>
          </g>
          <path id="Path_642-3" data-name="Path 642" class="cls-32" d="M2279.1,2008.2l6.6,6.3-7.3,5" transform="translate(-1963 -1718)"/>
        </g>
        <g id="Group_388-4" data-name="Group 388" transform="translate(-41 -6)">
          <g class="cls-42" transform="matrix(1, 0, 0, 1, 2320.67, -4664.8)">
            <rect id="Rectangle_246-9" data-name="Rectangle 246" class="cls-19" width="242.954" height="70.004" rx="13" transform="translate(-2279.67 4916.8)"/>
          </g>
          <g id="Group_386-4" data-name="Group 386" transform="translate(59.942 261.059)">
            <g id="Ellipse_62-4" data-name="Ellipse 62" class="cls-28" transform="translate(0 0)">
              <ellipse class="cls-40" cx="25.943" cy="25.943" rx="25.943" ry="25.943"/>
              <ellipse class="cls-2" cx="25.943" cy="25.943" rx="23.943" ry="23.943"/>
            </g>
            <text id="_6-4" data-name="6" class="cls-29" transform="translate(18.942 31.354)"><tspan x="0" y="0">6</tspan></text>
          </g>
          <g id="Group_387-4" data-name="Group 387" transform="translate(127.475 267.648)">
            <text id="Exam_Schedules" data-name="Exam Schedules" class="cls-30" transform="translate(0 17)"><tspan x="0" y="0">Exam Schedules</tspan></text>
            <text id="Evaluation_Time" data-name="Evaluation Time" class="cls-31" transform="translate(0 34.236)"><tspan x="0" y="0">Evaluation Time</tspan></text>
          </g>
          <path id="Path_642-4" data-name="Path 642" class="cls-32" d="M2279.1,2008.2l6.6,6.3-7.3,5" transform="translate(-1963 -1718)"/>
        </g>
        <g id="Group_388-5" data-name="Group 388" transform="translate(-41 76)">
          <g class="cls-41" transform="matrix(1, 0, 0, 1, 2320.67, -4746.8)">
            <rect id="Rectangle_246-10" data-name="Rectangle 246" class="cls-19" width="242.954" height="70.004" rx="13" transform="translate(-2279.67 4998.8)"/>
          </g>
          <g id="Group_386-5" data-name="Group 386" transform="translate(59.942 261.059)">
            <g id="Ellipse_62-5" data-name="Ellipse 62" class="cls-28" transform="translate(0 0)">
              <ellipse class="cls-40" cx="25.943" cy="25.943" rx="25.943" ry="25.943"/>
              <ellipse class="cls-2" cx="25.943" cy="25.943" rx="23.943" ry="23.943"/>
            </g>
            <text id="_6-5" data-name="6" class="cls-29" transform="translate(18.942 31.354)"><tspan x="0" y="0">6</tspan></text>
          </g>
          <g id="Group_387-5" data-name="Group 387" transform="translate(127.475 267.648)">
            <text id="Exam_Schedules-2" data-name="Exam Schedules" class="cls-30" transform="translate(0 17)"><tspan x="0" y="0">Exam Schedules</tspan></text>
            <text id="Evaluation_Time-2" data-name="Evaluation Time" class="cls-31" transform="translate(0 34.236)"><tspan x="0" y="0">Evaluation Time</tspan></text>
          </g>
          <path id="Path_642-5" data-name="Path 642" class="cls-32" d="M2279.1,2008.2l6.6,6.3-7.3,5" transform="translate(-1963 -1718)"/>
        </g>
      </g>
    </g>
    <g id="Group_442" data-name="Group 442" transform="translate(1886 -1970)">
      <g id="Group_433" data-name="Group 433" transform="translate(-1852 2046)">
        <g id="sideNav_left">
          <g id="side_nav_light">
            <rect id="side_nav_light-2" data-name="side_nav_light" class="cls-33" width="233.5" height="532.5"/>
          </g>
        </g>
      </g>
      <text id="Sparsh_Wadhwa-2" data-name="Sparsh Wadhwa" class="cls-34" transform="translate(-1819.251 2114.133)"><tspan x="0" y="0">Sparsh Wadhwa</tspan></text>
      <line id="Line_26" data-name="Line 26" class="cls-35" x2="192.499" transform="translate(-1818.852 2154.231)"/>
      <text id="HOME" class="cls-36" transform="translate(-1802.478 2202.177)"><tspan x="0" y="0">HOME</tspan></text>
      <text id="sparshwadhwa14_gmail.com" data-name="sparshwadhwa14@gmail.com" class="cls-37" transform="translate(-1819.251 2138.076)"><tspan x="0" y="0">sparshwadhwa14@gmail.com</tspan></text>
      <text id="SCHOOL_ACHIVEMENTS" data-name="SCHOOL ACHIVEMENTS" class="cls-36" transform="translate(-1803.276 2234.127)"><tspan x="0" y="0">SCHOOL ACHIVEMENTS</tspan></text>
      <text id="_12th_A-2" data-name="12th A" class="cls-36" transform="translate(-1803.276 2266.077)"><tspan x="0" y="0">12th A</tspan></text>
      <text id="COMMUNICATE" class="cls-36" transform="translate(-1803.276 2298.028)"><tspan x="0" y="0">COMMUNICATE</tspan></text>
      <text id="PLAY_QUIZ" data-name="PLAY QUIZ" class="cls-36" transform="translate(-1803.276 2329.978)"><tspan x="0" y="0">PLAY QUIZ</tspan></text>
      <text id="ABOUT_US" data-name="ABOUT US" class="cls-36" transform="translate(-1803.276 2361.927)"><tspan x="0" y="0">ABOUT US</tspan></text>
      <text id="SHARE_APP" data-name="SHARE APP" class="cls-36" transform="translate(-1802.478 2393.877)"><tspan x="0" y="0">SHARE APP</tspan></text>
      <g id="Group_435" data-name="Group 435" transform="translate(-1777.716 2461.35)">
        <rect id="Rectangle_306" data-name="Rectangle 306" class="cls-38" width="99.844" height="36.742" rx="18.371" transform="translate(0 0)"/>
        <text id="SIGN_OUT" data-name="SIGN OUT" class="cls-39" transform="translate(18.371 22.585)"><tspan x="0" y="0">SIGN OUT</tspan></text>
      </g>
      <g id="Group_434" data-name="Group 434" transform="translate(-1796.087 2514.067)">
        <rect id="Rectangle_307" data-name="Rectangle 307" class="cls-38" width="143.775" height="39.139" rx="19.569"/>
        <text id="DELETE_ACCOUNT" data-name="DELETE ACCOUNT" class="cls-39" transform="translate(14.377 24.182)"><tspan x="0" y="0">DELETE ACCOUNT</tspan></text>
      </g>
    </g>
  </g>
</svg>
